<?xml version="1.0" encoding="utf-8"?>
<!-- Generator: Adobe Illustrator 19.0.1, SVG Export Plug-In . SVG Version: 6.00 Build 0)  -->
<svg version="1.1" id="Layer_1" xmlns="http://www.w3.org/2000/svg" xmlns:xlink="http://www.w3.org/1999/xlink" x="0px" y="0px"
	 viewBox="-49 172.9 496 496" style="enable-background:new -49 172.9 496 496;" xml:space="preserve">
<style type="text/css">
	.st0{opacity:0.3;}
	.st1{fill:#44749D;}
</style>
<g class="st0">
	<g>
		<g>
			<path class="st1" d="M383,220.9v176h64v-176H383z M431,380.9h-32v-144h32V380.9z"/>
			<path class="st1" d="M303,301.8c-5.1-4.6-10.5-8.9-16-12.8v-4.1h-6c-31.2-20.6-68-32-106-32h-8v200h200v-8
				c0-16.3-2.2-32.3-6.2-48h6.2v-144h-64V301.8z M183,436.9V269.1c22.6,1,44.7,6.5,65,15.8h-25v112h64v-87.5c5.6,4.6,11,9.5,16,14.9
				v72.6h41.2c3.7,13,6,26.4,6.6,40H183z M271,300.9v80h-32v-80H271z M319,268.9h32v112h-32V268.9z"/>
			
				<rect x="4.9" y="446.9" transform="matrix(-0.7071 0.7071 -0.7071 -0.7071 412.1253 739.0663)" class="st1" width="96.2" height="16"/>
			<path class="st1" d="M47,420.9c0-13.2-10.8-24-24-24s-24,10.8-24,24s10.8,24,24,24S47,434.1,47,420.9z M15,420.9c0-4.4,3.6-8,8-8
				s8,3.6,8,8c0,4.4-3.6,8-8,8S15,425.3,15,420.9z"/>
			<path class="st1" d="M87,460.9c-13.2,0-24,10.8-24,24s10.8,24,24,24s24-10.8,24-24S100.2,460.9,87,460.9z M87,492.9
				c-4.4,0-8-3.6-8-8s3.6-8,8-8s8,3.6,8,8S91.4,492.9,87,492.9z"/>
			<path class="st1" d="M301.9,584.4c21.6-31.8,33.1-68.8,33.1-107.5v-8H151v-184h-8c-7.9,0-15.9,0.7-24,1.7V172.9H-49v112H51.7
				l15.6,15.6C-2.7,330.6-49,399.9-49,476.9c0,105.9,86.1,192,192,192c46.4,0,90.6-16.8,125.6-47.1l24.8,24.8
				c4.9,4.9,11.3,7.3,17.7,7.3s12.8-2.4,17.7-7.3c9.7-9.7,9.7-25.6,0-35.3L301.9,584.4z M58.3,268.9H-33v-80h136v124.7L58.3,268.9z
				 M143,652.9c-97,0-176-79-176-176c0-72.7,45.1-138,112.6-164.1l39.4,39.4v-49.6c5.4-0.7,10.7-1.3,16-1.6v183.8h183.8
				c-1.4,31.6-11.2,61.7-28.5,88l-12.8-12.8c0.9-3.6,1.4-7.4,1.4-11.3c0-26.5-21.5-48-48-48s-48,21.5-48,48s21.5,48,48,48
				c3.9,0,7.7-0.5,11.3-1.4l15,15C225.4,637.8,185.2,652.9,143,652.9z M263,548.9c0,17.6-14.4,32-32,32s-32-14.4-32-32
				s14.4-32,32-32S263,531.2,263,548.9z M317.3,635.2c-3.5,3.5-9.2,3.5-12.7,0L258,588.6c5-3.4,9.3-7.7,12.7-12.7l46.7,46.7
				C320.8,626,320.8,631.7,317.3,635.2z"/>
			<rect x="-17" y="204.9" class="st1" width="104" height="16"/>
			<rect x="-17" y="236.9" class="st1" width="104" height="16"/>
			<rect x="223" y="540.9" class="st1" width="16" height="16"/>
			<rect x="151" y="540.9" class="st1" width="16" height="16"/>
			<rect x="119" y="540.9" class="st1" width="16" height="16"/>
			<rect x="87" y="540.9" class="st1" width="16" height="16"/>
		</g>
	</g>
</g>
</svg>
