<?xml version="1.0" encoding="utf-8"?>
<!-- Generator: Adobe Illustrator 19.0.1, SVG Export Plug-In . SVG Version: 6.00 Build 0)  -->
<svg version="1.1" id="Capa_1" xmlns="http://www.w3.org/2000/svg" xmlns:xlink="http://www.w3.org/1999/xlink" x="0px" y="0px"
	 viewBox="-259 382.9 76 76" style="enable-background:new -259 382.9 76 76;" xml:space="preserve">
<style type="text/css">
	.st0{opacity:0.3;}
	.st1{fill:#44749D;}
</style>
<g id="_x37_7_Essential_Icons_1_" class="st0">
	<path id="Bar_Graph" class="st1" d="M-185,382.9h-18c-1.1,0-2,0.9-2,2v33.8h-14v-13.8c0-1.1-0.9-2-2-2h-18c-1.1,0-2,0.9-2,2v30.9
		h-16c-1.1,0-2,0.9-2,2v19.1c0,1.1,0.9,2,2,2h72c1.1,0,2-0.9,2-2v-72C-183,383.8-183.9,382.9-185,382.9z M-241,454.9h-14v-15.1h14
		V454.9z M-223,454.9h-14v-48h14V454.9z M-205,454.9h-14v-32.2h14V454.9z M-187,454.9h-14v-68h14V454.9z"/>
</g>
</svg>
