<?xml version="1.0" encoding="utf-8"?>
<!-- Generator: Adobe Illustrator 19.0.1, SVG Export Plug-In . SVG Version: 6.00 Build 0)  -->
<svg version="1.1" id="Capa_1" xmlns="http://www.w3.org/2000/svg" xmlns:xlink="http://www.w3.org/1999/xlink" x="0px" y="0px"
	 viewBox="-268 391.9 58 58" style="enable-background:new -268 391.9 58 58;" xml:space="preserve">
<style type="text/css">
	.st0{opacity:0.3;}
	.st1{fill:#44749D;}
</style>
<g class="st0">
	<path class="st1" d="M-247,405.9h-5v-5c0-0.6-0.4-1-1-1s-1,0.4-1,1v5h-5c-0.6,0-1,0.4-1,1c0,0.6,0.4,1,1,1h5v5c0,0.6,0.4,1,1,1
		s1-0.4,1-1v-5h5c0.6,0,1-0.4,1-1C-246,406.3-246.4,405.9-247,405.9z"/>
	<path class="st1" d="M-219,405.9h-12c-0.6,0-1,0.4-1,1c0,0.6,0.4,1,1,1h12c0.6,0,1-0.4,1-1C-218,406.3-218.4,405.9-219,405.9z"/>
	<path class="st1" d="M-238,391.9h-2h-28v28v2v28h28h2h28v-28v-2v-28H-238z M-266,393.9h26v26h-26V393.9z M-266,447.9v-26h26v26
		H-266z M-212,447.9h-26v-26h26V447.9z M-238,419.9v-26h26v26H-238z"/>
	<path class="st1" d="M-231,438.9h12c0.6,0,1-0.4,1-1c0-0.6-0.4-1-1-1h-12c-0.6,0-1,0.4-1,1C-232,438.4-231.6,438.9-231,438.9z"/>
	<path class="st1" d="M-231,432.9h12c0.6,0,1-0.4,1-1c0-0.6-0.4-1-1-1h-12c-0.6,0-1,0.4-1,1C-232,432.4-231.6,432.9-231,432.9z"/>
	<path class="st1" d="M-247.3,429.2c-0.4-0.4-1-0.4-1.4,0l-4.3,4.3l-4.3-4.3c-0.4-0.4-1-0.4-1.4,0c-0.4,0.4-0.4,1,0,1.4l4.3,4.3
		l-4.3,4.3c-0.4,0.4-0.4,1,0,1.4c0.2,0.2,0.5,0.3,0.7,0.3s0.5-0.1,0.7-0.3l4.3-4.3l4.3,4.3c0.2,0.2,0.5,0.3,0.7,0.3s0.5-0.1,0.7-0.3
		c0.4-0.4,0.4-1,0-1.4l-4.3-4.3l4.3-4.3C-246.9,430.2-246.9,429.6-247.3,429.2z"/>
</g>
</svg>
