<?xml version="1.0" encoding="utf-8"?>
<!-- Generator: Adobe Illustrator 19.0.1, SVG Export Plug-In . SVG Version: 6.00 Build 0)  -->
<svg version="1.1" id="Layer_1" xmlns="http://www.w3.org/2000/svg" xmlns:xlink="http://www.w3.org/1999/xlink" x="0px" y="0px"
	 viewBox="-41 164.9 512 512" style="enable-background:new -41 164.9 512 512;" xml:space="preserve">
<style type="text/css">
	.st0{fill:#44749D;}
</style>
<g>
	<g>
		<path class="st0" d="M397.5,167.9c-1.9-1.9-4.5-3-7.2-3H39.7c-5.6,0-10.2,4.6-10.2,10.2v491.6c0,5.6,4.6,10.2,10.2,10.2h349.7
			c5.6,0,10.2-4.6,10.2-10.2l0.9-491.6C400.5,172.4,399.4,169.8,397.5,167.9z M379.2,656.5H49.9V185.3h330.1L379.2,656.5z"/>
	</g>
</g>
<g>
	<g>
		<path class="st0" d="M363.7,591.2l-46.8-47.2c0.1-1.4,0.2-2.8,0.2-4.2c0-29-23.6-52.6-52.6-52.6s-52.6,23.6-52.6,52.6
			c0,1.4,0.1,2.8,0.2,4.2l-47.1,47.2c-2.8,2.8-3.7,6.9-2.4,10.6c1.3,3.7,4.6,6.3,8.5,6.8l22.2,2.5l2.5,22.2c0.4,3.9,3.1,7.2,6.8,8.5
			c1.1,0.4,2.2,0.6,3.4,0.6c2.7,0,5.3-1,7.2-3l47-47.1c1.5,0.1,2.9,0.2,4.4,0.2c1.5,0,2.9-0.1,4.4-0.2l46.6,47.1c1.9,2,4.6,3,7.2,3
			c1.1,0,2.2-0.2,3.3-0.6c3.7-1.3,6.3-4.6,6.8-8.5l2.5-22.2l22.2-2.5c3.9-0.4,7.2-3.1,8.5-6.8C367.4,598.1,366.4,594,363.7,591.2z
			 M213.6,610l-1.1-9.2c-0.5-4.7-4.3-8.4-9-9l-9.3-1.1l24.6-24.7c4.6,8,11.3,14.7,19.3,19.3L213.6,610z M264.5,572.1
			c-17.8,0-32.2-14.5-32.2-32.2c0-17.8,14.5-32.2,32.2-32.2c17.8,0,32.2,14.5,32.2,32.2C296.7,557.6,282.3,572.1,264.5,572.1z
			 M325,591.8c-4.7,0.5-8.4,4.3-9,9l-1,9.2l-24.3-24.5c8-4.6,14.7-11.3,19.3-19.3l24.4,24.6L325,591.8z"/>
	</g>
</g>
<g>
	<g>
		<path class="st0" d="M169.1,516.8H90.6c-5.6,0-10.2,4.6-10.2,10.2s4.6,10.2,10.2,10.2h78.5c5.6,0,10.2-4.6,10.2-10.2
			C179.3,521.3,174.7,516.8,169.1,516.8z"/>
	</g>
</g>
<g>
	<g>
		<path class="st0" d="M256.3,226.1h-82.6c-5.6,0-10.2,4.6-10.2,10.2c0,5.6,4.6,10.2,10.2,10.2h82.6c5.6,0,10.2-4.6,10.2-10.2
			S261.9,226.1,256.3,226.1z"/>
	</g>
</g>
<g>
	<g>
		<path class="st0" d="M334.8,268.9H95.2c-5.6,0-10.2,4.6-10.2,10.2s4.6,10.2,10.2,10.2h239.7c5.6,0,10.2-4.6,10.2-10.2
			S340.5,268.9,334.8,268.9z"/>
	</g>
</g>
<g>
	<g>
		<path class="st0" d="M290,339.3H182.4c-5.6,0-10.2,4.6-10.2,10.2c0,5.6,4.6,10.2,10.2,10.2H290c5.6,0,10.2-4.6,10.2-10.2
			C300.2,343.9,295.6,339.3,290,339.3z"/>
	</g>
</g>
<g>
	<g>
		<path class="st0" d="M145.6,339.3H140c-5.6,0-10.2,4.6-10.2,10.2c0,5.6,4.6,10.2,10.2,10.2h5.6c5.6,0,10.2-4.6,10.2-10.2
			C155.8,343.9,151.3,339.3,145.6,339.3z"/>
	</g>
</g>
<g>
	<g>
		<path class="st0" d="M290,379.1H182.4c-5.6,0-10.2,4.6-10.2,10.2s4.6,10.2,10.2,10.2H290c5.6,0,10.2-4.6,10.2-10.2
			C300.2,383.6,295.6,379.1,290,379.1z"/>
	</g>
</g>
<g>
	<g>
		<path class="st0" d="M145.6,379.1H140c-5.6,0-10.2,4.6-10.2,10.2s4.6,10.2,10.2,10.2h5.6c5.6,0,10.2-4.6,10.2-10.2
			C155.8,383.6,151.3,379.1,145.6,379.1z"/>
	</g>
</g>
<g>
	<g>
		<path class="st0" d="M290,419.9H182.4c-5.6,0-10.2,4.6-10.2,10.2s4.6,10.2,10.2,10.2H290c5.6,0,10.2-4.6,10.2-10.2
			C300.2,424.4,295.6,419.9,290,419.9z"/>
	</g>
</g>
<g>
	<g>
		<path class="st0" d="M145.6,419.9H140c-5.6,0-10.2,4.6-10.2,10.2s4.6,10.2,10.2,10.2h5.6c5.6,0,10.2-4.6,10.2-10.2
			C155.8,424.4,151.3,419.9,145.6,419.9z"/>
	</g>
</g>
</svg>
