<?xml version="1.0" encoding="utf-8"?>
<!-- Generator: Adobe Illustrator 19.0.1, SVG Export Plug-In . SVG Version: 6.00 Build 0)  -->
<svg version="1.1" id="Capa_1" xmlns="http://www.w3.org/2000/svg" xmlns:xlink="http://www.w3.org/1999/xlink" x="0px" y="0px"
	 viewBox="-52 175.9 490 490" style="enable-background:new -52 175.9 490 490;" xml:space="preserve">
<style type="text/css">
	.st0{opacity:0.3;}
	.st1{fill:#44749D;}
</style>
<g class="st0">
	<g>
		<path class="st1" d="M341.9,630.4c-2.3,0-4.6-0.8-6.4-2.4l-99.3-84.2h-220c-37.6,0-68.1-30.7-68.1-68.5V279.9
			c0-37.8,30.6-68.5,68.1-68.5h353.8c37.6,0,68.1,30.7,68.1,68.5v195.5c0,37.8-30.6,68.5-68.1,68.5h-18.1v76.5
			c0,3.9-2.2,7.4-5.8,9.1C344.7,630.1,343.3,630.4,341.9,630.4z M16.1,231.4c-26.6,0-48.2,21.8-48.2,48.5v195.5
			c0,26.7,21.6,48.5,48.2,48.5h223.7c2.3,0,4.6,0.8,6.4,2.4l85.7,72.7v-65c0-5.5,4.5-10,9.9-10h28c26.6,0,48.2-21.8,48.2-48.5V279.9
			c0-26.7-21.6-48.5-48.2-48.5C369.9,231.4,16.1,231.4,16.1,231.4z"/>
	</g>
	<g>
		<g>
			<path class="st1" d="M353.2,323.4H32.8c-5.5,0-9.9-4.5-9.9-10c0-5.5,4.5-10,9.9-10h320.3c5.5,0,9.9,4.5,9.9,10
				C363.1,318.9,358.7,323.4,353.2,323.4z"/>
		</g>
		<g>
			<path class="st1" d="M353.2,387.4H32.8c-5.5,0-9.9-4.5-9.9-10c0-5.5,4.5-10,9.9-10h320.3c5.5,0,9.9,4.5,9.9,10
				C363.1,382.9,358.7,387.4,353.2,387.4z"/>
		</g>
		<g>
			<path class="st1" d="M353.2,451.4H32.8c-5.5,0-9.9-4.5-9.9-10c0-5.5,4.5-10,9.9-10h320.3c5.5,0,9.9,4.5,9.9,10
				C363.1,447,358.7,451.4,353.2,451.4z"/>
		</g>
	</g>
</g>
</svg>
