<?xml version="1.0" encoding="utf-8"?>
<!-- Generator: Adobe Illustrator 19.0.1, SVG Export Plug-In . SVG Version: 6.00 Build 0)  -->
<svg version="1.1" id="Слой_1" xmlns="http://www.w3.org/2000/svg" xmlns:xlink="http://www.w3.org/1999/xlink" x="0px" y="0px"
	 viewBox="-53 176.9 489 489" style="enable-background:new -53 176.9 489 489;" xml:space="preserve">
<style type="text/css">
	.st0{opacity:0.3;}
	.st1{fill:#44749D;}
</style>
<g class="st0">
	<path class="st1" d="M191.5,176.9C56.3,176.9-53,286.2-53,421.4S56.3,665.9,191.5,665.9S436,556.6,436,421.4
		S326.7,176.9,191.5,176.9z M117.7,210.2c-12.9,18.1-23.9,37.2-33.1,57.2H29.1C53.3,241.8,83.6,222,117.7,210.2L117.7,210.2z
		 M11.6,288.2h64.2C60.7,327.1,52.4,368.6,51.2,411h-83.1C-29.8,365.1-14,322.8,11.6,288.2z M11.6,554.6
		C-14,520-29.8,477.7-31.9,431.8h83.1c1.2,42.4,9.8,83.9,25,122.8H11.6z M29.1,575.4h56c9.3,20,20.3,39.3,33,57.4
		C83.9,621,53.4,601.1,29.1,575.4z M181.1,644.9c-10.4-0.5-20.7-1.7-30.7-3.5c-16.6-20.5-30.8-42.6-42.3-65.9h73V644.9z
		 M181.1,554.6H98.6C82.5,515.8,73.3,474.3,72,431.8h109.1V554.6z M181.1,411H72c1.3-42.4,10.4-84,26.4-122.8h82.7V411z
		 M181.2,267.4h-0.1h-73.2c11.6-23.5,25.8-45.6,42.5-65.9c10-1.9,20.3-3,30.8-3.5V267.4z M371.4,288.2
		C397,322.8,412.9,365,414.9,411h-83.1c-1.2-42.4-9.8-83.9-25-122.8H371.4z M353.9,267.4h-56c-9.3-20-20.3-39.3-33.1-57.4
		C299.1,221.8,329.6,241.7,353.9,267.4z M201.9,198c10.4,0.5,20.7,1.7,30.7,3.5c16.6,20.5,30.8,42.6,42.3,65.9h-73V198z
		 M201.9,288.2h82.5c16.1,38.7,25.3,80.3,26.6,122.8H201.9C201.9,411,201.9,288.2,201.9,288.2z M201.9,431.8H311
		c-1.3,42.4-10.4,84-26.4,122.8h-82.7L201.9,431.8L201.9,431.8z M201.8,644.8v-69.4h0.1h73.2c-11.6,23.5-25.8,45.6-42.5,65.9
		C222.6,643.2,212.3,644.3,201.8,644.8L201.8,644.8z M264.8,632.8c12.7-18.1,23.7-37.4,32.9-57.4H354
		C329.6,601.1,299.1,621,264.8,632.8L264.8,632.8z M306.5,554.6c15-38.9,23.5-80.4,25.2-122.8H415c-2.1,45.9-17.9,88.2-43.5,122.8
		H306.5L306.5,554.6z"/>
</g>
</svg>
