<?xml version="1.0" encoding="utf-8"?>
<!-- Generator: Adobe Illustrator 19.0.1, SVG Export Plug-In . SVG Version: 6.00 Build 0)  -->
<svg version="1.1" id="Capa_1" xmlns="http://www.w3.org/2000/svg" xmlns:xlink="http://www.w3.org/1999/xlink" x="0px" y="0px"
	 viewBox="-267 390.9 60 60" style="enable-background:new -267 390.9 60 60;" xml:space="preserve">
<style type="text/css">
	.st0{opacity:0.3;}
	.st1{fill:#44749D;}
</style>
<g class="st0">
	<path class="st1" d="M-208,446.4v-39h-12v39h-3v-31h-12v31h-3v-23h-12v23h-3v-14h-12v14h-1c-0.6,0-1,0.4-1,1c0,0.6,0.4,1,1,1h1h12
		h3h12h3h12h3h12c0.6,0,1-0.4,1-1C-207,446.8-207.4,446.4-208,446.4z M-263,446.4v-12h8v12H-263z M-248,446.4v-21h8v21H-248z
		 M-233,446.4v-29h8v29H-233z M-218,446.4v-37h8v37H-218z"/>
	<path class="st1" d="M-259,418.7c0.2,0,0.3,0,0.5-0.1l36.3-20.9l-2.3,5c-0.2,0.5,0,1.1,0.5,1.3c0.1,0.1,0.3,0.1,0.4,0.1
		c0.4,0,0.7-0.2,0.9-0.6l3.6-7.8c0,0,0-0.1,0-0.1c0-0.1,0-0.1,0-0.2c0,0,0-0.1,0-0.1c0,0,0,0,0,0c0,0,0-0.1,0-0.1c0-0.1,0-0.1,0-0.2
		c0,0,0-0.1,0-0.1c0,0,0-0.1,0-0.1c0,0,0-0.1,0-0.1c0,0,0,0-0.1-0.1c0,0,0-0.1-0.1-0.1c0,0-0.1-0.1-0.1-0.1c0,0-0.1-0.1-0.1-0.1
		c0,0-0.1,0-0.1-0.1c0,0,0,0,0,0c0,0-0.1,0-0.1,0c-0.1,0-0.1,0-0.2,0c0,0,0,0-0.1,0l-8.6-0.8c-0.6-0.1-1,0.4-1.1,0.9
		c-0.1,0.5,0.3,1,0.9,1.1l5.5,0.5l-36.3,20.9c-0.5,0.3-0.6,0.9-0.4,1.4C-259.7,418.5-259.3,418.7-259,418.7z"/>
</g>
</svg>
