<?xml version="1.0" encoding="utf-8"?>
<!-- Generator: Adobe Illustrator 19.0.1, SVG Export Plug-In . SVG Version: 6.00 Build 0)  -->
<svg version="1.1" id="Layer_1" xmlns="http://www.w3.org/2000/svg" xmlns:xlink="http://www.w3.org/1999/xlink" x="0px" y="0px"
	 viewBox="-41 164.9 512 512" style="enable-background:new -41 164.9 512 512;" xml:space="preserve">
<style type="text/css">
	.st0{opacity:0.3;}
	.st1{fill:#44749D;}
</style>
<g class="st0">
	<g>
		<path class="st1" d="M219,164.9c-69.9-1.1-135.5,25.5-184.9,74.8c-35.2,35.1-58.8,78.6-69.2,125.9c-0.1,0.4-0.2,0.9-0.3,1.4
			c-4,18.7-5.9,38-5.6,57.6C-39,564,75.7,676.9,215,676.9c0.5,0,0.9,0,1.4,0c38.5-0.2,75.5-8.8,110-25.5h59.6
			c28.9,0,52.3-23.5,52.3-52.3v-53.2c20.9-37.3,32.2-79.6,32.6-122.5C472.3,283,359.3,167.1,219,164.9z M397.4,292.9
			c12.9,18.4,23.2,38.8,30.1,60.6h-110L397.4,292.9z M286.8,209.7c34.4,11.8,65.1,31.8,89.7,57.6l-89.7,68V209.7z M57.4,263.1
			c24.6-24.6,53.9-42.7,85.8-53.5v130l-92.7-69.3C52.7,267.9,55,265.5,57.4,263.1z M30,296.2l76.6,57.2H2.3
			C8.7,333.2,18,313.9,30,296.2z M33.3,549.8C20,531.2,9.5,510.5,2.4,488.3h105.4L33.3,549.8z M143.2,632
			c-34-11.7-64.4-31.3-88.9-56.8l88.9-73.3V632z M386.1,618.4h-63.5c-2.6,0-5.1,0.6-7.4,1.8c-9.2,4.7-18.7,8.6-28.3,11.9V508
			l117.4,97.7C401.5,613.1,394.4,618.4,386.1,618.4z M407.7,533.1c-1.5,2.5-2.2,5.4-2.2,8.3v22.4l-90.8-75.5h112.9
			C422.6,503.9,416,519,407.7,533.1z M435.3,455.4h-165c-9.1,0-16.5,7.4-16.5,16.5v168.7c-12.3,2.2-24.9,3.3-37.7,3.4
			c-0.4,0-0.8,0-1.2,0c-13.3,0-26.3-1.2-38.9-3.4V471.9c0-9.1-7.4-16.5-16.5-16.5h-165C-7,445.2-7.9,434.7-8,424.1
			c-0.2-12.8,0.7-25.4,2.6-37.7h165c9.1,0,16.5-7.4,16.5-16.5V205.3c0-1.4-0.2-2.7-0.5-4c12.9-2.3,26-3.4,39.4-3.4
			c1.2,0,2.3,0,3.5,0c12.2,0.2,24.2,1.4,35.9,3.5c-0.3,1.3-0.5,2.6-0.5,3.9v164.7c0,9.1,7.4,16.5,16.5,16.5h165
			c1.9,11.9,2.8,24.2,2.7,36.7C437.9,433.9,437,444.7,435.3,455.4z"/>
	</g>
</g>
</svg>
