<?xml version="1.0" encoding="utf-8"?>
<!-- Generator: Adobe Illustrator 19.0.1, SVG Export Plug-In . SVG Version: 6.00 Build 0)  -->
<svg version="1.1" id="Capa_1" xmlns="http://www.w3.org/2000/svg" xmlns:xlink="http://www.w3.org/1999/xlink" x="0px" y="0px"
	 viewBox="-72 195.4 450.5 450.5" style="enable-background:new -72 195.4 450.5 450.5;" xml:space="preserve">
<style type="text/css">
	.st0{opacity:0.3;fill:#E94440;}
</style>
<path class="st0" d="M281.2,568.3h-17.7v-37.4c0-5.5-4.5-10-10-10h-25l-16.9-197.5h12.2c5.5,0,10-4.5,10-10v-29h12.9
	c5.5,0,10-4.5,10-10v-69c0-5.5-4.5-10-10-10h-36.9c-5.5,0-10,4.5-10,10v20.8h-9.2v-20.8c0-5.5-4.5-10-10-10h-54.7
	c-5.5,0-10,4.5-10,10v20.8h-9.2v-20.8c0-5.5-4.5-10-10-10H59.8c-5.5,0-10,4.5-10,10v69c0,5.5,4.5,10,10,10h12.9v29
	c0,5.5,4.5,10,10,10h12.2L78,520.9H53c-5.5,0-10,4.5-10,10v37.4H25.3c-5.5,0-10,4.5-10,10v57.6c0,5.5,4.5,10,10,10h255.9
	c5.5,0,10-4.5,10-10v-57.6C291.2,572.8,286.7,568.3,281.2,568.3z M69.8,215.4h16.9v20.8c0,5.5,4.5,10,10,10h29.2c5.5,0,10-4.5,10-10
	v-20.8h34.7v20.8c0,5.5,4.5,10,10,10h29.2c5.5,0,10-4.5,10-10v-20.8h16.9v49H69.8V215.4z M92.7,284.4h121.2v19H92.7V284.4z
	 M115,323.4h76.6l16.9,197.5H98L115,323.4z M63,540.9h180.5v27.4H63V540.9z M271.2,625.9H35.3v-37.6h235.9V625.9z"/>
</svg>
