<?xml version="1.0" encoding="utf-8"?>
<!-- Generator: Adobe Illustrator 19.0.1, SVG Export Plug-In . SVG Version: 6.00 Build 0)  -->
<svg version="1.1" id="Capa_1" xmlns="http://www.w3.org/2000/svg" xmlns:xlink="http://www.w3.org/1999/xlink" x="0px" y="0px"
	 viewBox="-41 164.9 512 512" style="enable-background:new -41 164.9 512 512;" xml:space="preserve">
<style type="text/css">
	.st0{opacity:0.3;}
	.st1{fill:#44749D;}
</style>
<g class="st0">
	<path class="st1" d="M471,548.9c0,11.2-3.2,21.6-8.2,30.8L301.1,398.8L461,258.9c6.2,9.9,10,21.5,10,34L471,548.9L471,548.9z
		 M215,431.6L437.5,237c-9.1-5-19.4-8.1-30.5-8.1H23c-11.1,0-21.4,3.1-30.5,8.1L215,431.6z M277,419.9L225.5,465
		c-3,2.6-6.8,3.9-10.5,3.9c-3.8,0-7.5-1.3-10.5-3.9L153,419.9L-10.8,603c9.8,6.2,21.3,9.8,33.7,9.8h384c12.4,0,23.9-3.7,33.7-9.8
		L277,419.9z M-31,258.9c-6.2,9.9-10,21.5-10,34v256c0,11.2,3.1,21.6,8.2,30.8l161.6-180.9L-31,258.9z"/>
</g>
</svg>
