<?xml version="1.0" encoding="utf-8"?>
<!-- Generator: Adobe Illustrator 19.0.1, SVG Export Plug-In . SVG Version: 6.00 Build 0)  -->
<svg version="1.1" id="Layer_1" xmlns="http://www.w3.org/2000/svg" xmlns:xlink="http://www.w3.org/1999/xlink" x="0px" y="0px"
	 viewBox="-42 166 510.9 510.9" style="enable-background:new -42 166 510.9 510.9;" xml:space="preserve">
<style type="text/css">
	.st0{opacity:0.3;}
	.st1{fill:#44749D;}
</style>
<g class="st0">
	<g>
		<path class="st1" d="M444.4,304.6l-202.5-74.5c-22.1-8.1-46.5-8.1-68.7,0l-189.7,73.3c-16.3,5.8-25.6,20.9-25.6,37.2
			c0,16.3,10.5,30.3,25.6,36.1l202.5,74.5c10.5,3.5,22.1,5.8,33.7,5.8s23.3-2.3,32.6-7l46.5-17.5c5.8-2.3,9.3-9.3,7-15.1
			c-2.3-5.8-9.3-9.3-15.1-7L244.3,428c-15.1,5.8-32.6,5.8-50,0L-8.3,354.7c-9.3-3.5-10.5-11.6-10.5-14s1.2-11.6,10.5-15.1
			l189.7-72.1c16.3-5.8,34.9-7,52.4,0l202.5,74.5c7,1.2,10.5,5.8,10.5,12.8c0,7-4.7,12.8-11.6,15.1l-81.5,31.4l-123.3-50
			c-3.5-4.7-11.6-8.1-22.1-8.1c-12.8,0-23.3,5.8-23.3,11.6c0,5.8,9.3,10.5,20.9,11.6L342,407v144.3c-14,4.7-23.3,17.5-23.3,32.6
			c0,19.8,15.1,34.9,34.9,34.9c19.8,0,34.9-15.1,34.9-34.9c0-12.8-7-24.4-18.6-30.3c9.3-5.8,18.6-12.8,25.6-18.6
			c2.3-2.3,3.5-5.8,3.5-8.1v-93.1c0-7-4.7-11.6-11.6-11.6s-11.6,4.7-11.6,11.6v87.3c-3.5,3.5-7,5.8-11.6,8.1v-121l78-29.1
			c16.3-5.8,26.8-20.9,26.8-37.2C470,324.4,459.5,310.4,444.4,304.6z M365.3,585.1c0,7-4.7,11.6-11.6,11.6c-7,0-11.6-4.7-11.6-11.6
			c0-7,4.7-11.6,11.6-11.6C360.6,573.4,365.3,578.1,365.3,585.1z"/>
	</g>
</g>
<g class="st0">
	<g>
		<path class="st1" d="M294.3,573.4c-1.2-5.8-7-10.5-12.8-8.1c-23.3,5.8-46.5,8.1-67.5,8.1c-58.2,0-126.8-22.1-162.9-52.4v-87.3
			c0-7-4.7-11.6-11.6-11.6s-11.6,4.7-11.6,11.6v93.1c0,3.5,1.2,7,3.5,8.1C76.7,575.8,157,596.7,214,596.7c22.1,0,47.7-3.5,72.1-9.3
			C292,586.2,296.6,579.2,294.3,573.4z"/>
	</g>
</g>
</svg>
