<?xml version="1.0" encoding="utf-8"?>
<!-- Generator: Adobe Illustrator 19.0.1, SVG Export Plug-In . SVG Version: 6.00 Build 0)  -->
<svg version="1.1" id="Слой_1" xmlns="http://www.w3.org/2000/svg" xmlns:xlink="http://www.w3.org/1999/xlink" x="0px" y="0px"
	 viewBox="-273 390.9 48 60" style="enable-background:new -273 390.9 48 60;" xml:space="preserve">
<style type="text/css">
	.st0{opacity:0.3;}
	.st1{fill:#44749D;}
</style>
<g class="st0">
	<path class="st1" d="M-226,416.9h-46c-0.4,0-0.8-0.3-0.9-0.7c-0.1-0.4,0-0.9,0.3-1.1l23-18c0.4-0.3,0.9-0.3,1.2,0l23,18
		c0.3,0.3,0.5,0.7,0.3,1.1C-225.2,416.6-225.6,416.9-226,416.9z M-269.1,414.9h40.2l-20.1-15.7L-269.1,414.9z"/>
	<path class="st1" d="M-259,444.9h-12v-6h12V444.9z M-269,442.9h8v-2h-8V442.9z"/>
	<polygon class="st1" points="-259,420.9 -271,420.9 -271,416.9 -269,416.9 -269,418.9 -261,418.9 -261,415.9 -259,415.9 	"/>
	<path class="st1" d="M-227,444.9h-12v-6h12V444.9z M-237,442.9h8v-2h-8V442.9z"/>
	<polygon class="st1" points="-227,420.9 -239,420.9 -239,415.9 -237,415.9 -237,418.9 -229,418.9 -229,416.9 -227,416.9 	"/>
	<path class="st1" d="M-261,440.9h-8v-22h8V440.9z M-267,438.9h4v-18h-4V438.9z"/>
	<path class="st1" d="M-229,440.9h-8v-22h8V440.9z M-235,438.9h4v-18h-4V438.9z"/>
	<path class="st1" d="M-243,444.9h-12v-6h12V444.9z M-253,442.9h8v-2h-8V442.9z"/>
	<path class="st1" d="M-243,420.9h-12v-6h12V420.9z M-253,418.9h8v-2h-8V418.9z"/>
	<path class="st1" d="M-245,440.9h-8v-22h8V440.9z M-251,438.9h4v-18h-4V438.9z"/>
	<path class="st1" d="M-249,412.9c-2.2,0-4-1.8-4-4s1.8-4,4-4s4,1.8,4,4S-246.8,412.9-249,412.9z M-249,406.9c-1.1,0-2,0.9-2,2
		s0.9,2,2,2s2-0.9,2-2S-247.9,406.9-249,406.9z"/>
</g>
</svg>
