<?xml version="1.0" encoding="utf-8"?>
<!-- Generator: Adobe Illustrator 19.0.1, SVG Export Plug-In . SVG Version: 6.00 Build 0)  -->
<svg version="1.1" id="Capa_1" opacity="0.3" xmlns="http://www.w3.org/2000/svg" xmlns:xlink="http://www.w3.org/1999/xlink"
	 x="0px" y="0px" viewBox="-218 341.5 158.3 158.3" style="enable-background:new -218 341.5 158.3 158.3;" xml:space="preserve">
<style type="text/css">
	.st0{fill:#44749D;}
</style>
<path class="st0" d="M-96,499.9h-113.8c-1.4,0-2.5-1.1-2.5-2.5V344c0-1.4,1.1-2.5,2.5-2.5H-96c1.4,0,2.5,1.1,2.5,2.5v153.3
	C-93.5,498.8-94.6,499.9-96,499.9z M-207.3,494.9h108.8V346.5h-108.8V494.9z M-67.9,487.2h-11.2c-1.4,0-2.5-1.1-2.5-2.5V376.8
	c0-0.3,0-0.6,0-0.9l5.6-23.5c0.3-1.1,1.3-1.9,2.4-1.9s2.2,0.8,2.4,1.9l5.6,23.5c0.1,0.3,0.1,0.6,0,0.9v107.9
	C-65.4,486.1-66.5,487.2-67.9,487.2z M-76.6,482.2h6.2V379h-6.2V482.2z M-76,374h4.9l-2.5-10.3L-76,374z M-113.3,467.8h-79.2
	c-1.4,0-2.5-1.1-2.5-2.5c0-1.4,1.1-2.5,2.5-2.5h79.2c1.4,0,2.5,1.1,2.5,2.5C-110.8,466.7-111.9,467.8-113.3,467.8z M-113.3,449.6
	h-79.2c-1.4,0-2.5-1.1-2.5-2.5c0-1.4,1.1-2.5,2.5-2.5h79.2c1.4,0,2.5,1.1,2.5,2.5C-110.8,448.5-111.9,449.6-113.3,449.6z
	 M-113.3,402.7h-79.2c-1.4,0-2.5-1.1-2.5-2.5s1.1-2.5,2.5-2.5h79.2c1.4,0,2.5,1.1,2.5,2.5S-111.9,402.7-113.3,402.7z M-113.3,384.5
	h-79.2c-1.4,0-2.5-1.1-2.5-2.5c0-1.4,1.1-2.5,2.5-2.5h79.2c1.4,0,2.5,1.1,2.5,2.5C-110.8,383.4-111.9,384.5-113.3,384.5z
	 M-113.3,366.3h-79.2c-1.4,0-2.5-1.1-2.5-2.5c0-1.4,1.1-2.5,2.5-2.5h79.2c1.4,0,2.5,1.1,2.5,2.5
	C-110.8,365.2-111.9,366.3-113.3,366.3z"/>
</svg>
