<?xml version="1.0" encoding="utf-8"?>
<!-- Generator: Adobe Illustrator 19.0.1, SVG Export Plug-In . SVG Version: 6.00 Build 0)  -->
<svg version="1.1" id="Layer_1" xmlns="http://www.w3.org/2000/svg" xmlns:xlink="http://www.w3.org/1999/xlink" x="0px" y="0px"
	 viewBox="-41 164.9 512 512" style="enable-background:new -41 164.9 512 512;" xml:space="preserve">
<style type="text/css">
	.st0{opacity:0.3;}
	.st1{fill:#44749D;}
</style>
<g class="st0">
	<g>
		<g>
			<path class="st1" d="M460.3,634.2h-10.7v-96c0-5.9-4.8-10.7-10.7-10.7H300.3V410.2c0-5.9-4.8-10.7-10.7-10.7H279v-32
				c0-5.9-4.8-10.7-10.7-10.7h-42.7v-22.1c21.8-3.1,40.5-15.7,52-33.3c43.8-19.2,54.1-78.9,54.5-81.5c0.5-3.1-0.4-6.3-2.4-8.6
				c-2-2.4-5-3.8-8.1-3.8h-32v-10.7c0-5.9-4.8-10.7-10.7-10.7H151c-5.9,0-10.7,4.8-10.7,10.7v10.7h-32c-3.1,0-6.1,1.4-8.1,3.8
				c-2,2.4-2.9,5.5-2.4,8.6c0.4,2.6,10.7,62.2,54.5,81.5c11.5,17.7,30.3,30.2,52,33.3v22.1h-42.7c-5.9,0-10.7,4.8-10.7,10.7v32
				h-10.7c-5.9,0-10.7,4.8-10.7,10.7v74.7H-9c-5.9,0-10.7,4.8-10.7,10.7v138.7h-10.7c-5.9,0-10.7,4.8-10.7,10.7
				c0,5.9,4.8,10.7,10.7,10.7H-9h149.3h149.3H439h21.3c5.9,0,10.7-4.8,10.7-10.7S466.2,634.2,460.3,634.2z M289.7,260.9v-32h18.4
				c-3.1,10.3-8.8,25-18.6,36.9C289.6,264.2,289.7,262.6,289.7,260.9z M122,228.9h18.4v32c0,1.6,0.1,3.3,0.2,4.9
				C130.8,253.9,125.1,239.1,122,228.9z M129.7,634.2H1.7v-128h128V634.2z M161.7,260.9v-53.3h106.7v53.3
				c0,29.4-23.9,53.3-53.3,53.3C185.6,314.2,161.7,290.3,161.7,260.9z M172.3,378.2h85.3v21.3h-85.3L172.3,378.2L172.3,378.2z
				 M279,538.2v96H151V495.6v-74.7h10.7h106.7H279V538.2z M428.3,634.2h-128v-85.3h128V634.2z"/>
			<path class="st1" d="M225.7,271.6v-32c0-5.9-4.8-10.7-10.7-10.7c-5.9,0-10.7,4.8-10.7,10.7v32c0,5.9,4.8,10.7,10.7,10.7
				C220.9,282.2,225.7,277.5,225.7,271.6z"/>
		</g>
	</g>
</g>
</svg>
