<?xml version="1.0" encoding="utf-8"?>
<!-- Generator: Adobe Illustrator 19.0.1, SVG Export Plug-In . SVG Version: 6.00 Build 0)  -->
<svg version="1.1" id="Capa_1" xmlns="http://www.w3.org/2000/svg" xmlns:xlink="http://www.w3.org/1999/xlink" x="0px" y="0px"
	 viewBox="-82 205.9 430 430" style="enable-background:new -82 205.9 430 430;" xml:space="preserve">
<style type="text/css">
	.st0{opacity:0.3;fill:#44749D;}
</style>
<path id="XMLID_1428_" class="st0" d="M339,205.9H-73c-5,0-9,4-9,9v77.2c0,5,4,9,9,9h25.8c9.2,0,16.8,7.5,16.8,16.7
	c0,9.2-7.5,16.7-16.8,16.7H-73c-5,0-9,4-9,9v154.5c0,5,4,9,9,9h25.8c9.2,0,16.8,7.5,16.8,16.7s-7.5,16.7-16.8,16.7H-73c-5,0-9,4-9,9
	v77.2c0,5,4,9,9,9h206c5,0,9-4,9-9v-77.2c0-5-4-9-9-9h-25.8c-9.2,0-16.7-7.5-16.7-16.8c0-9.2,7.5-16.7,16.7-16.7H133c5,0,9-4,9-9
	v-68.2h59.2v16.8c0,19.2,15.6,34.7,34.8,34.7s34.8-15.6,34.8-34.7v-16.8H339c5,0,9-4,9-9v-206C348,209.9,344,205.9,339,205.9z
	 M124,489.1h-16.8c-19.2,0-34.7,15.6-34.7,34.7c0,19.2,15.6,34.7,34.7,34.7H124v59.2H-64v-59.2h16.8c19.2,0,34.8-15.6,34.8-34.8
	c0-19.2-15.6-34.7-34.8-34.7H-64v-59.2H4.2c5,0,9-4,9-9v-25.8c0-9.2,7.5-16.7,16.8-16.7c9.2,0,16.7,7.5,16.7,16.7v25.8c0,5,4,9,9,9
	H124L124,489.1L124,489.1z M133,334.6c-5,0-9,4-9,9v68.2H64.7v-16.8c0-19.2-15.6-34.7-34.8-34.7S-4.8,376-4.8,395.1v16.8H-64v-59.2
	h16.8c19.2,0,34.8-15.6,34.8-34.8c0-19.2-15.6-34.7-34.8-34.7H-64v-59.2h188v68.2c0,5,4,9,9,9h25.8c9.2,0,16.7,7.5,16.7,16.7
	c0,9.2-7.5,16.7-16.7,16.7H133z M330,411.9h-68.2c-5,0-9,4-9,9v25.8c0,9.2-7.5,16.7-16.8,16.7c-9.2,0-16.7-7.5-16.7-16.7v-25.8
	c0-5-4-9-9-9H142v-59.2h16.8c19.2,0,34.7-15.6,34.7-34.8c0-19.2-15.6-34.7-34.7-34.7H142v-59.2h188V411.9z"/>
</svg>
