<?xml version="1.0" encoding="utf-8"?>
<!-- Generator: Adobe Illustrator 19.0.1, SVG Export Plug-In . SVG Version: 6.00 Build 0)  -->
<svg version="1.1" id="Слой_1" xmlns="http://www.w3.org/2000/svg" xmlns:xlink="http://www.w3.org/1999/xlink" x="0px" y="0px"
	 viewBox="-149 273.1 295.8 295.8" style="enable-background:new -149 273.1 295.8 295.8;" xml:space="preserve">
<style type="text/css">
	.st0{opacity:0.3;}
	.st1{fill:#44749D;}
</style>
<g class="st0">
	<g>
		<path class="st1" d="M5.9,342.7c-10.4-3.5-22.6,0-31.3,7c-8.7,7-13.9,17.4-13.9,29.6c0,5.2,3.5,8.7,8.7,8.7c5.2,0,8.7-3.5,8.7-8.7
			c0-5.2,1.7-12.2,7-15.7s10.4-5.2,17.4-3.5c8.7,1.7,13.9,8.7,15.7,15.7c1.7,8.7,0,15.7-7,20.9c-13.9,10.4-20.9,26.1-20.9,41.8
			c0,5.2,3.5,8.7,8.7,8.7c5.2,0,8.7-3.5,7-8.7c0-10.4,7-20.9,15.7-27.8c12.2-10.4,17.4-24.4,13.9-38.3
			C32,356.6,19.8,346.2,5.9,342.7L5.9,342.7z"/>
		<path class="st1" d="M-8.1,483.6c-1.7,1.7-1.7,5.2-1.7,7c0,1.7,0,3.5,1.7,5.2c1.7,1.7,5.2,3.5,7,3.5s5.2-1.7,5.2-3.5
			c1.7,0,3.5-3.5,3.5-5.2c0-3.5-1.7-5.2-3.5-7C0.7,480.1-4.6,480.1-8.1,483.6L-8.1,483.6z"/>
		<path class="st1" d="M-1.1,273.1C-82.9,273.1-149,339.2-149,421S-82.9,568.9-1.1,568.9S146.8,502.8,146.8,421
			S80.7,273.1-1.1,273.1z M-1.1,551.5c-71.3,0-130.5-59.2-130.5-130.5S-72.4,290.5-1.1,290.5S129.4,349.6,129.4,421
			S70.3,551.5-1.1,551.5z"/>
	</g>
</g>
</svg>
