<?xml version="1.0" encoding="iso-8859-1"?>
<!-- Generator: Adobe Illustrator 19.0.0, SVG Export Plug-In . SVG Version: 6.00 Build 0)  -->
<svg version="1.1" id="Layer_1" xmlns="http://www.w3.org/2000/svg" xmlns:xlink="http://www.w3.org/1999/xlink" x="0px" y="0px"
	 viewBox="0 0 502 502" style="enable-background:new 0 0 502 502;" xml:space="preserve">
<g>
	<g>
		<g>
			<path d="M167.312,136.527c2.564,0,5.128-0.98,7.082-2.939c3.899-3.911,3.89-10.242-0.021-14.142L57.505,2.919
				c-3.911-3.9-10.243-3.891-14.142,0.021c-3.899,3.912-3.89,10.242,0.021,14.142l116.867,116.527
				C162.203,135.555,164.757,136.527,167.312,136.527z"/>
			<path d="M408.127,38.946L307.611,139.462v-7.638c0-5.522-4.477-10-10-10h-93.222c-5.523,0-10,4.478-10,10v55.086
				c0,3.097,1.435,6.02,3.886,7.913l6.516,5.035c-27.465,8.611-52.233,24.844-71.207,46.975
				C109.606,274.799,96.4,310.515,96.4,347.401C96.4,432.647,165.753,502,251,502s154.6-69.354,154.6-154.6
				c0-36.886-13.206-72.602-37.184-100.567c-18.975-22.13-43.743-38.364-71.207-46.975l6.516-5.035
				c2.451-1.894,3.886-4.816,3.886-7.913v-19.163L422.269,53.089c3.905-3.905,3.905-10.237,0-14.143
				C418.364,35.042,412.032,35.042,408.127,38.946z M214.389,141.824h73.222V182L251,210.29L214.389,182V141.824z M385.6,347.401
				c0,74.219-60.381,134.6-134.6,134.6s-134.6-60.381-134.6-134.6c0-64.821,45.347-119.685,108.437-132.052l20.049,15.492
				c3.601,2.783,8.628,2.783,12.229,0l20.049-15.492C340.254,227.715,385.6,282.579,385.6,347.401z"/>
			<path d="M458.634,2.937c-3.9-3.908-10.232-3.916-14.142-0.016l-9.555,9.534c-3.909,3.901-3.917,10.232-0.015,14.143
				c1.953,1.957,4.516,2.937,7.079,2.937c2.556,0,5.111-0.974,7.063-2.921l9.555-9.534C462.528,13.178,462.535,6.847,458.634,2.937z
				"/>
			<path d="M195.64,420.094c-22.738-17.414-35.779-43.806-35.779-72.405c0-5.522-4.477-10-10-10c-5.523,0-10,4.478-10,10
				c0,34.875,15.898,67.054,43.618,88.284c1.814,1.389,3.952,2.062,6.073,2.062c3.005,0,5.978-1.35,7.946-3.921
				C200.857,429.73,200.024,423.452,195.64,420.094z"/>
			<path d="M153.452,319.064c1.229,0.497,2.498,0.732,3.746,0.732c3.955,0,7.7-2.362,9.274-6.253
				c3.971-9.818,9.591-18.812,16.704-26.728c3.691-4.108,3.353-10.432-0.756-14.122c-4.109-3.692-10.432-3.353-14.122,0.755
				c-8.669,9.65-15.522,20.617-20.367,32.595C145.86,311.163,148.332,316.992,153.452,319.064z"/>
			<path d="M253.568,289.59c-25.678,0-46.568,20.891-46.568,46.568c0,5.522,4.477,10,10,10s10-4.478,10-10
				c0-14.649,11.918-26.568,26.568-26.568c0.414,0,0.825,0.01,1.224,0.027c7.984,0.359,14.509,5.104,17.454,12.691
				c2.378,6.129,2.422,15.176-4.587,22.185l-51.436,51.436c-2.86,2.86-3.715,7.161-2.167,10.898
				c1.548,3.736,5.194,6.173,9.239,6.173h63.246c5.523,0,10-4.478,10-10c0-5.522-4.477-10-10-10h-39.104l34.365-34.364
				c11.551-11.552,15.034-28.244,9.089-43.563c-5.811-14.973-19.298-24.72-35.208-25.437
				C254.982,289.606,254.277,289.59,253.568,289.59z"/>
		</g>
	</g>
</g>
<g>
</g>
<g>
</g>
<g>
</g>
<g>
</g>
<g>
</g>
<g>
</g>
<g>
</g>
<g>
</g>
<g>
</g>
<g>
</g>
<g>
</g>
<g>
</g>
<g>
</g>
<g>
</g>
<g>
</g>
</svg>
