<?xml version="1.0" encoding="utf-8"?>
<!-- Generator: Adobe Illustrator 19.0.1, SVG Export Plug-In . SVG Version: 6.00 Build 0)  -->
<svg version="1.1" id="Layer_1" xmlns="http://www.w3.org/2000/svg" xmlns:xlink="http://www.w3.org/1999/xlink" x="0px" y="0px"
	 viewBox="-41 164.9 512 512" style="enable-background:new -41 164.9 512 512;" xml:space="preserve">
<style type="text/css">
	.st0{fill:#4CBD91;}
	.st1{fill:#FEDAAB;}
	.st2{fill:#A67C52;}
	.st3{fill:#231F20;}
</style>
<path class="st0" d="M419.8,641.8c0,0,0,11.9,0,26.9H10.2c0-15.1,0-26.9,0-26.9s1-59,102.4-91.6c0,0,36.8-19.2,48.5-32.3
	c0,0,22.2,26.9,53.9,26.9s53.9-26.9,53.9-26.9c11.7,13.2,48.5,32.3,48.5,32.3C419.5,582.6,419.8,641.8,419.8,641.8z"/>
<path class="st1" d="M161.1,483.6c15.6,8.2,33.8,12.7,53.9,12.7s38.3-4.6,53.9-12.7v34.3c0,0-22.2,26.9-53.9,26.9
	s-53.9-26.9-53.9-26.9L161.1,483.6L161.1,483.6z"/>
<path class="st2" d="M188.1,264.6c-48.5,48.5-91.6,48.5-91.6,48.5v-5.4c0,0-5.6-134.7,118.6-134.7c124,0,118.6,134.7,118.6,134.7
	C258.1,307.7,188.1,264.6,188.1,264.6z"/>
<path class="st1" d="M268.9,483.6c-15.6,8.1-33.8,12.7-53.9,12.7s-38.3-4.5-53.9-12.7c-34.6-18-57.3-53.4-63.2-95.5
	c-16.7-2.3-33.8-18.1-33.8-31.9c0-14.9,14.4-21.6,32.3-21.6v-21.6c0,0,43.1,0,91.6-48.5c0,0,70.1,43.1,145.5,43.1v26.9
	c17.9,0,32.3,6.7,32.3,21.6c0,13.8-17.1,29.6-33.8,31.9C326.2,430.3,303.5,465.6,268.9,483.6z"/>
<path class="st3" d="M320.5,542.7c-9.6-5.1-33.3-18.5-43.5-28.1v-26.2c32.7-18.8,55-52.4,62.2-93.5c18.6-5.3,34.8-22.7,34.8-38.7
	c0-16.2-12.2-27-32.3-29.2v-19.1c0.2-4.6,1.6-67.7-38-108.8c-21.8-22.7-51.6-34.2-88.7-34.2c-37.2,0-67,11.5-88.8,34.2
	c-39.5,41.2-38,104.1-37.8,108.8V327C68.2,329.2,56,340,56,356.2c0,16,16.2,33.3,34.8,38.7c7.2,41.1,29.5,74.8,62.2,93.5v26.2
	c-10.2,9.6-33.9,23.1-43.6,28.1C4.4,576.8,2.2,639.1,2.1,641.7l0,35.2h425.8v-35.1C427.9,639.1,426.3,576.5,320.5,542.7z
	 M169.2,496.2c14.1,5.5,29.5,8.3,45.8,8.3c16.2,0,31.5-2.8,45.8-8.3v18.6c-5.6,5.8-23.2,22-45.8,22s-40.2-16.2-45.8-22L169.2,496.2
	L169.2,496.2z M137.9,210.2c18.6-19.4,44.5-29.2,77.1-29.2c32.4,0,58.3,9.8,76.9,29.1c27.7,28.8,32.6,71.7,33.4,89.2
	c-69.1-2.9-132.4-41.3-133-41.7l-5.4-3.4l-4.5,4.5c-33.2,33.2-63.8,42.5-77.8,45.1C104.7,290.8,107.4,242,137.9,210.2z M106,387
	l-0.8-6.1l-6.1-0.8c-11.7-1.6-26.8-13.5-26.8-23.9c0-12.5,18.6-13.5,24.2-13.5h8.1v-22.3c14.8-2.2,48.1-11,84.8-45.8
	c17.5,9.8,73.8,38.6,136.2,41l0,27.1h8.1c5.7,0,24.2,1,24.2,13.5c0,10.4-15.1,22.3-26.8,23.9l-6.1,0.8L324,387
	c-5.6,40.3-27,72.8-58.9,89.4c-15.2,7.8-32,11.8-50.2,11.8c-18.3,0-35.2-4-50.2-11.8C133,459.9,111.5,427.3,106,387z M411.7,660.7
	H18.3V642c0.1-0.9,1-13.9,12.5-30.2c20.3-28.6,57-45.1,84.3-53.9l0.7-0.2l0.6-0.3c3.4-1.8,29.4-15.5,44.5-28.1
	c9.3,8.8,28.9,23.7,54.2,23.7c25.3,0,44.8-14.9,54.2-23.7c15.1,12.6,41.1,26.4,44.5,28.1l0.6,0.3l0.7,0.2
	c27.4,8.7,64.4,25.1,84.5,53.7c11.6,16.5,12.2,29.6,12.3,30.3L411.7,660.7L411.7,660.7z"/>
</svg>
