<?xml version="1.0" encoding="utf-8"?>
<!-- Generator: Adobe Illustrator 19.0.1, SVG Export Plug-In . SVG Version: 6.00 Build 0)  -->
<svg version="1.1" id="Capa_1" xmlns="http://www.w3.org/2000/svg" xmlns:xlink="http://www.w3.org/1999/xlink" x="0px" y="0px"
	 viewBox="-281 405 31.8 31.8" style="enable-background:new -281 405 31.8 31.8;" xml:space="preserve">
<style type="text/css">
	.st0{opacity:0.3;}
	.st1{fill:#E94440;}
</style>
<g class="st0">
	<path class="st1" d="M-250.4,422.5c0.5-0.3,1.2-1.5,1.2-1.5s-1.4-0.1-2,0.2c-0.1,0-0.1,0.1-0.1,0.1c0.1-0.5,0.1-1,0.1-1.5
		c0.3,0.1,0.8-0.1,1.2-0.4c0.5-0.4,0.8-1.8,0.8-1.8s-1.4,0.2-1.9,0.6c-0.1,0.1-0.1,0.1-0.1,0.2c0-0.5-0.1-1.1-0.2-1.6
		c0.3,0,0.8-0.3,1-0.6c0.4-0.5,0.4-1.9,0.4-1.9s-1.3,0.5-1.7,1c0,0.1-0.1,0.1-0.1,0.2c-0.1-0.4-0.3-0.8-0.4-1.2
		c0.3-0.1,0.7-0.4,0.9-0.8c0.3-0.6,0-2,0-2s-1.2,0.8-1.4,1.3c0,0.1,0,0.1-0.1,0.2c-0.2-0.4-0.4-0.8-0.7-1.2c0.3-0.1,0.6-0.5,0.7-0.9
		c0.2-0.6-0.3-1.9-0.3-1.9s-1.1,0.9-1.2,1.5c0,0.1,0,0.2,0,0.2c-0.3-0.4-0.7-0.8-1.1-1.2c0.3-0.2,0.5-0.6,0.5-1.1
		c0-0.6-0.7-1.8-0.7-1.8s-0.8,1.2-0.8,1.8c0,0.1,0,0.1,0,0.2c-0.3-0.3-0.6-0.5-1-0.7c-0.1-0.3-0.3-0.6-0.7-0.8
		c-0.5-0.3-1.9-0.3-1.9-0.3s0.6,1.3,1.1,1.6c0.2,0.1,0.5,0.2,0.7,0.2c0.3,0.2,0.5,0.3,0.7,0.5c-0.6,0.1-1.7,0.7-1.7,0.7
		s1.2,0.8,1.8,0.8c0.5,0,0.9-0.2,1.1-0.5c0.3,0.3,0.5,0.5,0.7,0.8c-0.6-0.1-1.8,0.3-1.8,0.3s0.9,1.1,1.5,1.2c0.5,0.1,1,0,1.2-0.2
		c0.2,0.3,0.4,0.6,0.5,0.9c-0.6-0.2-1.8,0-1.8,0s0.8,1.2,1.3,1.4c0.4,0.2,0.9,0.2,1.2,0c0.1,0.3,0.2,0.5,0.3,0.8
		c-0.6-0.3-1.8-0.4-1.8-0.4s0.5,1.3,1,1.7c0.4,0.3,0.9,0.4,1.2,0.3c0.1,0.4,0.1,0.7,0.1,1.1c-0.5-0.4-1.7-0.7-1.7-0.7
		s0.2,1.4,0.6,1.9c0.3,0.3,0.7,0.6,1.1,0.5c0,0.4,0,0.7-0.1,1.1c-0.4-0.5-1.5-1.1-1.5-1.1s-0.1,1.4,0.2,2c0.2,0.4,0.7,0.7,1,0.8
		c-0.1,0.3-0.2,0.6-0.3,0.9c-0.3-0.6-1.4-1.4-1.4-1.4s-0.3,1.4-0.1,2c0.2,0.4,0.5,0.8,0.8,0.9c-0.1,0.3-0.3,0.6-0.4,0.8
		c-0.1-0.6-1.1-1.6-1.1-1.6s-0.5,1.3-0.4,1.9c0.1,0.4,0.3,0.8,0.6,1c-0.2,0.3-0.4,0.5-0.6,0.8c0-0.6-0.8-1.8-0.8-1.8
		s-0.8,1.2-0.8,1.8c0,0.5,0.2,0.9,0.5,1.1c-0.2,0.2-0.5,0.4-0.7,0.6c0,0,0,0,0,0c0.1-0.6-0.6-1.9-0.6-1.9s-0.9,1.1-1,1.7
		c-0.1,0.4,0.1,0.8,0.3,1.1c-0.3,0.2-0.6,0.4-1,0.5c0-0.1,0.1-0.2,0.1-0.3c0.1-0.6-0.4-1.9-0.4-1.9s-1,1-1.1,1.6
		c-0.1,0.4,0,0.8,0.2,1.1c-0.6,0.2-1.2,0.4-1.8,0.5c-0.4-1.2-1.4-2-2.7-2c-1.3,0-2.4,0.9-2.7,2c-0.6-0.1-1.2-0.3-1.8-0.5
		c0.2-0.3,0.3-0.7,0.2-1.1c-0.1-0.6-1.1-1.6-1.1-1.6s-0.5,1.3-0.4,1.9c0,0.1,0,0.2,0.1,0.3c-0.3-0.2-0.6-0.3-1-0.5
		c0.2-0.3,0.3-0.7,0.3-1.1c-0.1-0.6-1-1.7-1-1.7s-0.6,1.3-0.6,1.9c0,0,0,0,0,0c-0.3-0.2-0.5-0.4-0.7-0.6c0.3-0.2,0.5-0.7,0.5-1.1
		c0-0.6-0.8-1.8-0.8-1.8s-0.8,1.2-0.8,1.8c-0.2-0.2-0.4-0.5-0.6-0.8c0.3-0.2,0.6-0.6,0.6-1c0.1-0.6-0.4-1.9-0.4-1.9s-0.9,1-1.1,1.6
		c-0.2-0.3-0.3-0.5-0.4-0.8c0.3-0.1,0.7-0.4,0.8-0.9c0.2-0.6-0.1-2-0.1-2s-1.1,0.8-1.4,1.4c-0.1-0.3-0.2-0.6-0.3-0.9
		c0.4,0,0.8-0.3,1-0.8c0.3-0.5,0.2-2,0.2-2s-1.1,0.6-1.5,1.1c0-0.4-0.1-0.7-0.1-1.1c0.3,0,0.8-0.2,1.1-0.5c0.4-0.5,0.6-1.9,0.6-1.9
		s-1.2,0.3-1.7,0.7c0-0.4,0.1-0.7,0.1-1.1c0.3,0.1,0.8,0,1.2-0.3c0.5-0.4,1-1.7,1-1.7s-1.3,0-1.8,0.4c0.1-0.3,0.2-0.5,0.3-0.8
		c0.3,0.2,0.8,0.2,1.2,0c0.6-0.2,1.3-1.4,1.3-1.4s-1.2-0.2-1.9,0c0.2-0.3,0.3-0.6,0.5-0.9c0.3,0.2,0.8,0.3,1.2,0.2
		c0.6-0.2,1.5-1.2,1.5-1.2s-1.1-0.4-1.8-0.3c0.2-0.3,0.5-0.5,0.7-0.8c0.2,0.3,0.7,0.5,1.1,0.5c0.6,0,1.8-0.8,1.8-0.8s-1-0.6-1.7-0.7
		c0.2-0.2,0.5-0.4,0.7-0.5c0.2,0,0.5-0.1,0.7-0.2c0.5-0.3,1.1-1.6,1.1-1.6s-1.4-0.1-1.9,0.3c-0.3,0.2-0.6,0.5-0.7,0.8
		c-0.3,0.2-0.6,0.5-0.9,0.7c0-0.1,0-0.1,0-0.2c0-0.6-0.8-1.8-0.8-1.8s-0.7,1.2-0.7,1.8c0,0.5,0.2,0.9,0.5,1.1
		c-0.4,0.4-0.7,0.8-1.1,1.2c0-0.1,0-0.2,0-0.2c-0.2-0.6-1.2-1.5-1.2-1.5s-0.4,1.3-0.3,1.9c0.1,0.4,0.4,0.8,0.7,0.9
		c-0.3,0.4-0.5,0.8-0.7,1.2c0-0.1,0-0.1-0.1-0.2c-0.3-0.6-1.4-1.3-1.4-1.3s-0.2,1.4,0,2c0.2,0.4,0.6,0.8,0.9,0.8
		c-0.2,0.4-0.3,0.8-0.4,1.2c0-0.1-0.1-0.1-0.1-0.2c-0.4-0.5-1.7-1-1.7-1s0,1.4,0.4,1.9c0.3,0.4,0.7,0.6,1,0.6
		c-0.1,0.5-0.2,1-0.2,1.6c0-0.1-0.1-0.1-0.1-0.2c-0.5-0.4-1.9-0.6-1.9-0.6s0.4,1.4,0.8,1.8c0.4,0.3,0.8,0.5,1.2,0.4
		c0,0.5,0.1,1,0.1,1.5c0,0-0.1-0.1-0.1-0.1c-0.5-0.3-2-0.2-2-0.2s0.7,1.2,1.2,1.5c0.4,0.2,0.9,0.3,1.2,0.1c0.1,0.4,0.2,0.8,0.3,1.2
		c0,0-0.1-0.1-0.1-0.1c-0.6-0.2-2,0.1-2,0.1s0.8,1.2,1.4,1.4c0.4,0.2,1,0.1,1.2-0.1c0.2,0.4,0.4,0.8,0.6,1.1c0,0-0.1,0-0.1,0
		c-0.6-0.1-1.9,0.4-1.9,0.4s1,1,1.6,1.1c0.5,0.1,1,0,1.2-0.3c0.3,0.4,0.5,0.7,0.8,1c0,0-0.1,0-0.1,0c-0.6,0-1.8,0.8-1.8,0.8
		s1.2,0.8,1.8,0.8c0.5,0,0.9-0.2,1.1-0.5c0.3,0.3,0.6,0.5,0.9,0.7c0,0-0.1,0-0.1,0c-0.6,0.1-1.7,1-1.7,1s1.3,0.6,1.9,0.6
		c0.5-0.1,1-0.4,1.1-0.7c0.2,0.1,0.5,0.3,0.7,0.4c-0.6,0.3-1.4,1-1.4,1s1.3,0.5,1.9,0.4c0.5-0.1,0.9-0.4,1-0.8
		c0.7,0.3,1.5,0.5,2.3,0.7c0.1,1.5,1.3,2.6,2.8,2.6c1.5,0,2.7-1.2,2.8-2.6c0.8-0.2,1.5-0.4,2.3-0.7c0.1,0.3,0.5,0.7,1,0.8
		c0.6,0.1,1.9-0.4,1.9-0.4s-0.8-0.8-1.4-1c0.2-0.1,0.5-0.3,0.7-0.4c0.1,0.3,0.6,0.6,1.1,0.7c0.6,0.1,1.9-0.6,1.9-0.6s-1.1-0.9-1.7-1
		c0,0-0.1,0-0.1,0c0.3-0.2,0.6-0.5,0.9-0.7c0.2,0.3,0.7,0.5,1.1,0.5c0.6,0,1.8-0.8,1.8-0.8s-1.2-0.8-1.8-0.8c0,0-0.1,0-0.1,0
		c0.3-0.3,0.6-0.7,0.8-1c0.2,0.3,0.7,0.4,1.2,0.3c0.6-0.1,1.6-1.1,1.6-1.1s-1.3-0.5-1.9-0.4c0,0-0.1,0-0.1,0
		c0.2-0.4,0.4-0.7,0.6-1.1c0.3,0.2,0.8,0.2,1.2,0.1c0.6-0.2,1.4-1.4,1.4-1.4s-1.4-0.3-2-0.1c0,0-0.1,0.1-0.1,0.1
		c0.1-0.4,0.2-0.8,0.3-1.2C-251.3,422.7-250.8,422.7-250.4,422.5z"/>
</g>
</svg>
