<?xml version="1.0" encoding="utf-8"?>
<!-- Generator: Adobe Illustrator 19.0.1, SVG Export Plug-In . SVG Version: 6.00 Build 0)  -->
<svg version="1.1" id="Capa_1" xmlns="http://www.w3.org/2000/svg" xmlns:xlink="http://www.w3.org/1999/xlink" x="0px" y="0px"
	 viewBox="-41 164.9 512 512" style="enable-background:new -41 164.9 512 512;" xml:space="preserve">
<style type="text/css">
	.st0{fill:#44749D;}
</style>
<g>
	<g>
		<path class="st0" d="M215,164.9c-141.2,0-256,114.8-256,256c0,141.1,114.8,256,256,256c141.1,0,256-114.9,256-256
			C471,279.7,356.2,164.9,215,164.9z M278.7,429.9H237c0,66.5,0,148.4,0,148.4h-61.7c0,0,0-81.1,0-148.4H146v-52.5h29.3v-33.9
			c0-24.3,11.5-62.3,62.3-62.3l45.7,0.2v50.9c0,0-27.8,0-33.2,0S237,335,237,346.6v30.8h47L278.7,429.9z"/>
	</g>
</g>
</svg>
