<?xml version="1.0" encoding="utf-8"?>
<!-- Generator: Adobe Illustrator 19.0.1, SVG Export Plug-In . SVG Version: 6.00 Build 0)  -->
<svg version="1.1" id="Layer_1" xmlns="http://www.w3.org/2000/svg" xmlns:xlink="http://www.w3.org/1999/xlink" x="0px" y="0px"
	 viewBox="-171 283.1 251.6 275.8" style="enable-background:new -171 283.1 251.6 275.8;" xml:space="preserve">
<style type="text/css">
	.st0{opacity:0.5;}
	.st1{fill:#44749D;}
</style>
<g class="st0">
	<path class="st1" d="M-58.3,283.1c17.2,0.7,32.2,2,48.2,4.1c4.8,0.6,12.4,2.6,13.2,5.5c1.9,6.9,1.5,14.9,0.1,22.2
		c-0.6,3.2-5.8,2.9-8.9,2.8c-20.8-0.6-41.6-2.2-62.4-2.4c-36.7-0.4-58,15.4-63.8,51.4c-6,37.1-6.4,75,0.7,112.2
		c6.3,32.9,27.3,48.5,60.9,48.2c12.4-0.1,25.4-0.1,38.9-0.4c0.1-5.1-0.2-7.9-0.2-10.9c0-29.2,0-58.4,0-87.6
		c0-11.5,2.2-13.6,13.7-13.7c22.2-0.1,22.2-0.1,22.2,22.4c0,33.3,0,66.5,0,99.8c0,15.9,0.1,17.8-15.9,19.2
		c-24.4,2.1-49.1,3.9-73.4,2.5c-40.5-2.4-66.5-25.9-78.6-63.9c-4.3-13.6-6.5-28.3-6.9-42.6c-0.7-26-0.9-52.1,1.4-78
		c4.8-54,37.3-86.4,86-90.3C-81.8,283.4-65.2,283.1-58.3,283.1z"/>
	<path class="st1" d="M80.6,421c0,41.1,0,82.1,0,123.2c0,10.9-1.6,12.4-12.7,12.5c-23.3,0.2-23.3,0.2-23.3-23.1
		c0-77.5,0-155,0-232.6c0-14.1,1.4-15.5,15.2-15.5c20.8,0,20.8,0,20.8,20.9C80.6,344.6,80.6,382.8,80.6,421z"/>
</g>
</svg>
