<?xml version="1.0" encoding="utf-8"?>
<!-- Generator: Adobe Illustrator 19.0.1, SVG Export Plug-In . SVG Version: 6.00 Build 0)  -->
<svg version="1.1" id="Layer_1" xmlns="http://www.w3.org/2000/svg" xmlns:xlink="http://www.w3.org/1999/xlink" x="0px" y="0px"
	 viewBox="-252 376.1 89.8 89.8" style="enable-background:new -252 376.1 89.8 89.8;" xml:space="preserve">
<style type="text/css">
	.st0{fill:#44749D;}
</style>
<g>
	<path class="st0" d="M-193.7,400h-26.8c-4.3,0-7.7,3.5-7.7,7.7v26.8c0,4.3,3.5,7.7,7.7,7.7h26.8c4.3,0,7.7-3.5,7.7-7.7v-26.8
		C-186,403.5-189.5,400-193.7,400z M-207.1,435c-7.7,0-13.9-6.2-13.9-13.9c0-7.7,6.2-13.9,13.9-13.9c7.7,0,13.9,6.2,13.9,13.9
		C-193.2,428.8-199.5,435-207.1,435z M-192.8,410.1c-1.8,0-3.3-1.5-3.3-3.3s1.5-3.3,3.3-3.3c1.8,0,3.3,1.5,3.3,3.3
		S-191,410.1-192.8,410.1z"/>
	<path class="st0" d="M-207.1,413.1c-4.4,0-8,3.6-8,8c0,4.4,3.6,8,8,8c4.4,0,8-3.6,8-8C-199.1,416.7-202.7,413.1-207.1,413.1z"/>
	<path class="st0" d="M-207.1,376.1c-24.8,0-44.9,20.1-44.9,44.9s20.1,44.9,44.9,44.9s44.9-20.1,44.9-44.9S-182.3,376.1-207.1,376.1
		z M-180.1,434.5c0,7.5-6.1,13.6-13.6,13.6h-26.8c-7.5,0-13.6-6.1-13.6-13.6v-26.8c0-7.5,6.1-13.6,13.6-13.6h26.8
		c7.5,0,13.6,6.1,13.6,13.6V434.5z"/>
</g>
</svg>
