<?xml version="1.0" encoding="utf-8"?>
<!-- Generator: Adobe Illustrator 19.0.1, SVG Export Plug-In . SVG Version: 6.00 Build 0)  -->
<svg version="1.1" id="Слой_1" xmlns="http://www.w3.org/2000/svg" xmlns:xlink="http://www.w3.org/1999/xlink" x="0px" y="0px"
	 viewBox="-835 411.5 29.1 28.9" style="enable-background:new -835 411.5 29.1 28.9;" xml:space="preserve">
<style type="text/css">
	.st0{fill:#44749D;}
</style>
<path id="fa-close" class="st0" d="M-806.6,433.1l-7.2-7.2l7.2-7.2c0.9-0.9,0.9-2.4,0-3.3c0,0,0,0,0,0l-3.3-3.3
	c-0.9-0.9-2.4-0.9-3.3,0l-7.2,7.2l-7.2-7.2c-0.9-0.9-2.4-0.9-3.3,0l-3.3,3.3c-0.9,0.9-0.9,2.4,0,3.3c0,0,0,0,0,0l7.2,7.2l-7.2,7.2
	c-0.9,0.9-0.9,2.4,0,3.3c0,0,0,0,0,0l3.3,3.3c0.9,0.9,2.4,0.9,3.3,0l7.2-7.2l7.2,7.2c0.9,0.9,2.4,0.9,3.3,0l3.3-3.3
	C-805.7,435.5-805.7,434-806.6,433.1C-806.6,433.1-806.6,433.1-806.6,433.1L-806.6,433.1z"/>
</svg>
