<?xml version="1.0" encoding="utf-8"?>
<!-- Generator: Adobe Illustrator 19.0.1, SVG Export Plug-In . SVG Version: 6.00 Build 0)  -->
<svg version="1.1" id="Capa_1" xmlns="http://www.w3.org/2000/svg" xmlns:xlink="http://www.w3.org/1999/xlink" x="0px" y="0px"
	 viewBox="-73 196.9 448 448" style="enable-background:new -73 196.9 448 448;" xml:space="preserve">
<style type="text/css">
	.st0{opacity:0.3;fill:#E94440;}
</style>
<path id="XMLID_763_" class="st0" d="M99.6,494.4v16c0,6.7,2.5,12.8,6.5,17.5v57c0,13.2,10.7,23.9,23.9,23.9H172
	c13.2,0,23.9-10.7,23.9-23.9v-57c4.1-4.7,6.5-10.8,6.5-17.5v-15.9c42.4-19.9,69.5-62.2,69.5-109.5C272,318.2,217.7,264,151,264
	c-66.7,0-120.9,54.3-120.9,120.9C30.1,432.2,57.2,474.5,99.6,494.4z M177.9,584.9c0,3.2-2.7,5.9-5.9,5.9h-41.9
	c-3.2,0-5.9-2.7-5.9-5.9v-12h29.8c5,0,9-4,9-9s-4-9-9-9h-29.8v-18c0.7,0.1,1.4,0.1,2.1,0.1h49.6c0.7,0,1.4,0,2.1-0.1V584.9z
	 M151,282c56.8,0,103,46.2,103,102.9c0,42-25.1,79.4-63.9,95.3c-3.4,1.4-5.6,4.7-5.6,8.3v21.8c0,4.8-3.9,8.7-8.7,8.7h-49.6
	c-4.8,0-8.7-3.9-8.7-8.7v-21.8c0-3.7-2.2-6.9-5.6-8.3c-38.8-15.9-63.9-53.3-63.9-95.3C48.1,328.2,94.3,282,151,282z M142,230.8v-25
	c0-5,4-9,9-9s9,4,9,9v25c0,5-4,9-9,9S142,235.8,142,230.8z M142,314c0-5,4-9,9-9c46.6,0,84.5,37.9,84.5,84.5c0,5-4,9-9,9s-9-4-9-9
	c0-36.7-29.8-66.5-66.5-66.5C146.1,323,142,318.9,142,314z M278.9,249.8c3.5,3.5,3.5,9.2,0,12.7l-16.6,16.6
	c-1.8,1.8-4.1,2.6-6.4,2.6c-2.3,0-4.6-0.9-6.4-2.6c-3.5-3.5-3.5-9.2,0-12.7l16.6-16.6C269.7,246.3,275.4,246.3,278.9,249.8z
	 M331.9,377.7c0,5-4,9-9,9H303c-5,0-9-4-9-9c0-5,4-9,9-9h19.9C327.9,368.7,331.9,372.8,331.9,377.7z M272.3,608.4
	c0,12.4-13,21.7-39.7,28.2c-21.9,5.4-50.8,8.3-81.5,8.3c-32.5,0-63.8-3.4-85.8-9.4c-23.8-6.5-35.4-15.4-35.4-27.1
	c0-13.8,16.1-23.7,49.1-30.3c4.9-1,9.6,2.2,10.6,7.1c1,4.9-2.2,9.6-7.1,10.6c-23,4.6-32,10.2-34.2,12.6c1.4,1.5,6.4,5.6,21.8,9.8
	c20.5,5.6,50.1,8.8,81.1,8.8c27.1,0,53-2.4,72.9-6.8c21.9-4.8,28.3-10,29.9-11.8c-2.2-2.4-11.2-8-34.2-12.6c-4.9-1-8-5.7-7.1-10.6
	c1-4.9,5.7-8,10.6-7.1C256.2,584.6,272.3,594.5,272.3,608.4z M39.7,279.2l-16.6-16.6c-3.5-3.5-3.5-9.2,0-12.7s9.2-3.5,12.7,0
	l16.6,16.6c3.5,3.5,3.5,9.2,0,12.7c-1.8,1.8-4.1,2.6-6.4,2.6S41.5,280.9,39.7,279.2z M8,377.7c0,5-4,9-9,9h-19.9c-5,0-9-4-9-9
	c0-5,4-9,9-9H-1C4,368.7,8,372.8,8,377.7z"/>
</svg>
